<?xml version="1.0" encoding="iso-8859-1"?>
<!-- Generator: Adobe Illustrator 19.0.0, SVG Export Plug-In . SVG Version: 6.00 Build 0)  -->
<svg version="1.1" id="Capa_1" xmlns="http://www.w3.org/2000/svg" xmlns:xlink="http://www.w3.org/1999/xlink" x="0px" y="0px"
	 viewBox="0 0 492.2 492.2" style="enable-background:new 0 0 492.2 492.2;" xml:space="preserve">
<g>
	<g>
		<path d="M256.1,252v-40.1c54.5-5.3,96.1-51,96.2-105.7C352.3,47.6,304.8,0,246.1,0c-58.6,0-106.2,47.5-106.2,106.2
			c0,54.8,41.7,100.5,96.2,105.7v40c-12.3-12-28.9-18.7-46.1-18.6h-22.9v23.3c-0.2,36.1,29,65.6,65.1,65.7c0.2,0,0.3,0,0.5,0h3.4
			v40.8c-12.1-12-28.5-18.8-45.6-18.8c-0.2,0-0.4-0.1-0.6-0.1h-22.8v23.5c0,36.5,29.2,66.5,65.6,66.5h3.4v38h-36.2
			c-5.5,0-10,4.5-10,10s4.5,10,10,10h92.4c5.5,0,10-4.5,10-10s-4.5-10-10-10h-36.2v-38h3.4c36.4,0,65.6-30,65.6-66.5v-23.4h-22.9
			c-17.3,0-33.8,6.8-46.1,18.9v-40.9h3.4c36.1,0.1,65.5-29.1,65.6-65.3c0-0.2,0-0.3,0-0.5v-23.2h-22.9
			C285,233.2,268.4,240,256.1,252z M246.1,172.8c-5.5,0-10-4.5-10-10v-5.9c-13.5-4.3-22.6-16.9-22.6-31c0-5.5,4.5-10,10-10
			s10,4.5,10,10c0,7,5.7,12.6,12.6,12.6c7,0,12.6-5.7,12.6-12.6c0-7-5.7-12.6-12.6-12.6c-14.1,0-26.7-9.1-31-22.6
			c-5.5-17.2,3.9-35.6,21-41.1V48c0-5.5,4.5-10,10-10s10,4.5,10,10v1.6c13.5,4.4,22.6,16.9,22.6,31.1c0,5.5-4.5,10-10,10
			s-10-4.5-10-10c0-6.1-4.4-11.4-10.5-12.4c-1.4,0.3-2.8,0.3-4.2,0c-6.1,1-10.5,6.3-10.5,12.4c0,7,5.6,12.6,12.6,12.6
			c14.1,0,26.7,9.1,31,22.6c5.5,17.1-3.9,35.5-21,41v5.9C256.1,168.3,251.6,172.8,246.1,172.8z"/>
	</g>
</g>
<g>
</g>
<g>
</g>
<g>
</g>
<g>
</g>
<g>
</g>
<g>
</g>
<g>
</g>
<g>
</g>
<g>
</g>
<g>
</g>
<g>
</g>
<g>
</g>
<g>
</g>
<g>
</g>
<g>
</g>
</svg>
