<?xml version="1.0" encoding="iso-8859-1"?>
<!-- Generator: Adobe Illustrator 19.0.0, SVG Export Plug-In . SVG Version: 6.00 Build 0)  -->
<svg version="1.1" id="Layer_1" xmlns="http://www.w3.org/2000/svg" xmlns:xlink="http://www.w3.org/1999/xlink" x="0px" y="0px"
	 viewBox="0 0 503.467 503.467" style="enable-background:new 0 0 503.467 503.467;" xml:space="preserve">
<g transform="translate(1 1)">
	<g>
		<path style="fill:#FFE079;" d="M395.8,199.533c0,35.84-12.8,68.267-34.987,93.867h-51.2c30.72-19.627,52.053-54.613,52.053-93.867
			c0-61.44-49.493-110.933-110.933-110.933S139.8,138.093,139.8,199.533c0,39.253,20.48,74.24,52.053,93.867h-51.2
			c-21.333-25.6-34.133-58.027-34.133-93.867c0-80.213,64.853-145.067,145.067-145.067S395.8,119.32,395.8,199.533"/>
		<path style="fill:#FFE079;" d="M361.667,199.533c0,39.253-20.48,74.24-52.053,93.867h-117.76
			c-30.72-19.627-52.053-54.613-52.053-93.867c0-61.44,49.493-110.933,110.933-110.933S361.667,138.093,361.667,199.533"/>
	</g>
	<path style="fill:#7EE1E6;" d="M498.2,37.4v256H360.813c21.333-25.6,34.987-58.027,34.987-93.867
		c0-80.213-64.853-145.067-145.067-145.067S105.667,119.32,105.667,199.533c0,35.84,12.8,68.267,34.133,93.867H3.267v-256
		c0-17.067,17.067-34.133,34.133-34.133h426.667C481.133,3.267,498.2,20.333,498.2,37.4"/>
	<path style="fill:#ECF4F7;" d="M498.2,293.4v51.2c0,17.067-17.067,34.133-34.133,34.133H293.4h-85.333H37.4
		c-17.067,0-34.133-17.067-34.133-34.133v-51.2H139.8H191h117.76h51.2H498.2z M208.067,464.067v-85.333H293.4v85.333h34.133
		c17.067,0,34.133,17.067,34.133,34.133H139.8c0-17.067,17.067-34.133,34.133-34.133H208.067z"/>
	<path style="fill:#7EE1E6;" d="M250.733,327.533c5.12,0,8.533,4.267,8.533,8.533s-3.413,8.533-8.533,8.533
		c-5.12,0-8.533-4.267-8.533-8.533S245.613,327.533,250.733,327.533"/>
</g>
<path style="fill:#51565F;" d="M362.667,503.467H140.8c-2.56,0-4.267-1.707-4.267-4.267c0-19.627,18.773-38.4,38.4-38.4H204.8
	v-46.933c0-2.56,1.707-4.267,4.267-4.267s4.267,1.707,4.267,4.267V460.8h46.933c2.56,0,4.267,1.707,4.267,4.267
	c0,2.56-1.707,4.267-4.267,4.267h-85.333c-13.653,0-27.307,11.947-29.867,25.6h212.48c-2.56-13.653-16.213-25.6-29.867-25.6h-34.133
	c-2.56,0-4.267-1.707-4.267-4.267v-51.2c0-2.56,1.707-4.267,4.267-4.267s4.267,1.707,4.267,4.267V460.8h29.867
	c19.627,0,38.4,18.773,38.4,38.4C366.933,501.76,365.227,503.467,362.667,503.467z M465.067,384H38.4C18.773,384,0,365.227,0,345.6
	v-51.2c0-2.56,1.707-4.267,4.267-4.267h460.8c2.56,0,4.267,1.707,4.267,4.267c0,2.56-1.707,4.267-4.267,4.267H8.533V345.6
	c0,14.507,15.36,29.867,29.867,29.867h426.667c14.507,0,29.867-15.36,29.867-29.867V38.4c0-14.507-15.36-29.867-29.867-29.867H38.4
	c-14.507,0-29.867,15.36-29.867,29.867v221.867c0,2.56-1.707,4.267-4.267,4.267S0,262.827,0,260.267V38.4C0,18.773,18.773,0,38.4,0
	h426.667c19.627,0,38.4,18.773,38.4,38.4v307.2C503.467,365.227,484.693,384,465.067,384z M251.733,349.867
	c-6.827,0-12.8-5.973-12.8-12.8s5.973-12.8,12.8-12.8c6.827,0,12.8,5.973,12.8,12.8S258.56,349.867,251.733,349.867z M251.733,332.8
	c-2.56,0-4.267,1.707-4.267,4.267s1.707,4.267,4.267,4.267c2.56,0,4.267-1.707,4.267-4.267S254.293,332.8,251.733,332.8z
	 M119.467,264.533c-1.707,0-3.413-0.853-4.267-2.56c-8.533-19.627-13.653-40.107-13.653-61.44
	c0-81.92,67.413-149.333,149.333-149.333s149.333,67.413,149.333,149.333c0,21.333-4.267,41.813-13.653,61.44
	c-0.853,2.56-3.413,3.413-5.973,1.707c-2.56-0.853-3.413-3.413-1.707-5.973c8.533-18.773,12.8-37.547,12.8-58.027
	c0-77.653-63.147-140.8-140.8-140.8s-140.8,63.147-140.8,140.8c0,19.627,4.267,39.253,12.8,58.027c0.853,2.56,0,4.267-1.707,5.973
	C121.173,264.533,120.32,264.533,119.467,264.533z M344.747,264.533c-0.853,0-1.707,0-2.56-0.853
	c-1.707-0.853-2.56-4.267-1.707-5.973c11.093-17.067,17.067-36.693,17.067-57.173c0-58.88-47.787-106.667-106.667-106.667
	s-106.667,47.787-106.667,106.667c0,20.48,5.973,40.107,17.067,57.173c0.853,1.707,0.853,4.267-1.707,5.973
	c-1.707,0.853-4.267,0.853-5.973-1.707c-11.947-18.773-17.92-40.107-17.92-62.293c0-63.147,52.053-115.2,115.2-115.2
	s115.2,52.053,115.2,115.2c0,22.187-5.973,43.52-17.92,62.293C348.16,263.68,346.453,264.533,344.747,264.533z M251.733,264.533
	c-2.56,0-4.267-1.707-4.267-4.267V256c-14.507-1.707-25.6-14.507-25.6-29.867c0-2.56,1.707-4.267,4.267-4.267
	s4.267,1.707,4.267,4.267c0,11.947,9.387,21.333,21.333,21.333c11.947,0,21.333-9.387,21.333-21.333S263.68,204.8,251.733,204.8
	c-16.213,0-29.867-13.653-29.867-29.867c0-15.36,11.093-27.307,25.6-29.867V140.8c0-2.56,1.707-4.267,4.267-4.267
	c2.56,0,4.267,1.707,4.267,4.267v4.267c14.507,1.707,25.6,14.507,25.6,29.867c0,2.56-1.707,4.267-4.267,4.267
	s-4.267-1.707-4.267-4.267c0-11.947-9.387-21.333-21.333-21.333c-11.947,0-21.333,9.387-21.333,21.333
	c0,11.947,9.387,21.333,21.333,21.333c16.213,0,29.867,13.653,29.867,29.867c0,15.36-11.093,27.307-25.6,29.867v4.267
	C256,262.827,254.293,264.533,251.733,264.533z"/>
<g>
</g>
<g>
</g>
<g>
</g>
<g>
</g>
<g>
</g>
<g>
</g>
<g>
</g>
<g>
</g>
<g>
</g>
<g>
</g>
<g>
</g>
<g>
</g>
<g>
</g>
<g>
</g>
<g>
</g>
</svg>
